<svg width="33" height="33" viewBox="0 0 33 33" fill="none" xmlns="http://www.w3.org/2000/svg">
<g clip-path="url(#clip0_4_9000)">
<path d="M0.5 16.6665C0.5 7.82995 7.66344 0.666504 16.5 0.666504C25.3366 0.666504 32.5 7.82995 32.5 16.6665C32.5 25.5031 25.3366 32.6665 16.5 32.6665C7.66344 32.6665 0.5 25.5031 0.5 16.6665Z" fill="#3B5998"/>
<path d="M18.1676 26.0742V17.3693H20.5706L20.889 14.3696H18.1676L18.1717 12.8682C18.1717 12.0858 18.2461 11.6666 19.3698 11.6666H20.872V8.6665H18.4687C15.582 8.6665 14.566 10.1217 14.566 12.5689V14.3699H12.7666V17.3696H14.566V26.0742H18.1676Z" fill="white"/>
</g>
<defs>
<clipPath id="clip0_4_9000">
<rect width="32" height="33" fill="white" transform="translate(0.5)"/>
</clipPath>
</defs>
</svg>
