<svg width="33" height="33" viewBox="0 0 33 33" fill="none" xmlns="http://www.w3.org/2000/svg">
<g clip-path="url(#clip0_4_9003)">
<path d="M0.5 16.6665C0.5 7.82995 7.66344 0.666504 16.5 0.666504C25.3366 0.666504 32.5 7.82995 32.5 16.6665C32.5 25.5031 25.3366 32.6665 16.5 32.6665C7.66344 32.6665 0.5 25.5031 0.5 16.6665Z" fill="#FF0000"/>
<path d="M24.6768 12.7153C24.4805 11.9613 23.9022 11.3675 23.1679 11.166C21.8371 10.7998 16.5001 10.7998 16.5001 10.7998C16.5001 10.7998 11.1632 10.7998 9.8323 11.166C9.09795 11.3675 8.51962 11.9613 8.32335 12.7153C7.9668 14.0818 7.9668 16.9331 7.9668 16.9331C7.9668 16.9331 7.9668 19.7843 8.32335 21.151C8.51962 21.905 9.09795 22.4987 9.8323 22.7003C11.1632 23.0665 16.5001 23.0665 16.5001 23.0665C16.5001 23.0665 21.8371 23.0665 23.1679 22.7003C23.9022 22.4987 24.4805 21.905 24.6768 21.151C25.0335 19.7843 25.0335 16.9331 25.0335 16.9331C25.0335 16.9331 25.0335 14.0818 24.6768 12.7153Z" fill="white"/>
<path d="M14.8999 19.8665V14.5332L19.1666 17.2L14.8999 19.8665Z" fill="#FF0000"/>
</g>
<defs>
<clipPath id="clip0_4_9003">
<rect width="32" height="33" fill="white" transform="translate(0.5)"/>
</clipPath>
</defs>
</svg>
